Coordinates
version=1
nRows=10
nColumns=63
inDegrees=yes

Units are S.I. units (second, meters, Newtons, ...)
If the header above contains a line with 'inDegrees', this indicates whether rotational values are in degrees (yes) or radians (no).

endheader
time	pelvis_tilt	pelvis_list	pelvis_rotation	pelvis_tx	pelvis_ty	pelvis_tz	hip_flexion_r	hip_adduction_r	hip_rotation_r	knee_angle_r	knee_angle_r_beta	ankle_angle_r	subtalar_angle_r	mtp_angle_r	hip_flexion_l	hip_adduction_l	hip_rotation_l	knee_angle_l	knee_angle_l_beta	ankle_angle_l	subtalar_angle_l	mtp_angle_l	L5_S1_Flex_Ext	L5_S1_Lat_Bending	L5_S1_axial_rotation	L4_L5_Flex_Ext	L4_L5_Lat_Bending	L4_L5_axial_rotation	L3_L4_Flex_Ext	L3_L4_Lat_Bending	L3_L4_axial_rotation	L2_L3_Flex_Ext	L2_L3_Lat_Bending	L2_L3_axial_rotation	L1_L2_Flex_Ext	L1_L2_Lat_Bending	L1_L2_axial_rotation	L1_T12_Flex_Ext	L1_T12_Lat_Bending	L1_T12_axial_rotation	Abs_r3	Abs_r2	Abs_r1	Abs_t1	Abs_t2	neck_flexion	neck_bending	neck_rotation	arm_flex_r	arm_add_r	arm_rot_r	elbow_flex_r	pro_sup_r	wrist_flex_r	wrist_dev_r	arm_flex_l	arm_add_l	arm_rot_l	elbow_flex_l	pro_sup_l	wrist_flex_l	wrist_dev_l
1.000000	-4.748905	0.464908	87.661502	0.251722	0.826058	0.752286	6.330204	-2.124688	-3.719855	12.693899	0.221550	35.424268	7.375221	0.000000	4.791103	2.579119	-5.213021	8.556132	0.149333	33.560427	1.503858	0.000000	0.316532	-0.129221	0.788312	0.587831	-0.171864	0.837581	0.520030	-0.314189	0.837581	0.361764	-0.314189	0.689773	0.293931	-0.263508	0.640503	0.180866	-0.200164	0.591234	2.260956	-1.461777	4.384353	0.000000	0.000000	13.187794	1.662015	-18.273998	11.384086	-22.019714	6.031351	136.500539	86.156759	3.692317	13.441035	6.338338	-21.751535	26.958077	107.661529	83.545583	-0.985501	11.378899
1.016667	-4.888798	0.740000	87.241961	0.253017	0.826250	0.752398	6.060478	-2.218775	-3.457850	12.663236	0.221015	35.490141	7.540448	0.000000	4.592922	2.618046	-6.078209	8.781494	0.153266	33.789030	2.072289	0.000000	0.302351	-0.166834	0.977743	0.561496	-0.221890	1.038852	0.496733	-0.405641	1.038852	0.345557	-0.405641	0.855525	0.280763	-0.340209	0.794416	0.172763	-0.258426	0.733307	2.159664	-1.887263	5.437913	0.000000	0.000000	12.479226	1.914372	-20.131428	12.156104	-22.571559	4.737031	138.267379	86.739864	3.809721	11.329357	7.060986	-22.224340	27.402492	108.408484	83.404286	-1.837946	11.254006
1.033333	-5.022592	0.996969	86.840046	0.254393	0.826507	0.752396	5.798949	-2.294295	-3.163835	12.618816	0.220240	35.530850	7.625236	0.000000	4.394590	2.649130	-6.865216	8.968773	0.156535	33.976545	2.576749	0.000000	0.288297	-0.206787	1.146316	0.535396	-0.275027	1.217961	0.473643	-0.502782	1.217961	0.329494	-0.502782	1.003027	0.267712	-0.421680	0.931382	0.164733	-0.320313	0.859737	2.059274	-2.339215	6.375466	0.000000	0.000000	11.897087	2.313999	-21.984714	12.721697	-22.909118	3.511484	139.952460	87.468924	3.551093	9.300484	7.664416	-22.669584	27.698859	109.217434	82.857646	-3.017569	11.276828
1.050000	-5.147819	1.231000	86.475607	0.255784	0.826856	0.752321	5.553090	-2.354134	-2.847278	12.561908	0.219247	35.544393	7.647073	0.000000	4.204611	2.674063	-7.550836	9.116440	0.159112	34.123531	3.030166	0.000000	0.273952	-0.248007	1.282409	0.508755	-0.329849	1.362560	0.450075	-0.603004	1.362560	0.313099	-0.603004	1.122108	0.254391	-0.505736	1.041957	0.156536	-0.384163	0.961807	1.956808	-2.805503	7.132375	0.000000	0.000000	11.452242	2.845885	-23.772646	13.141343	-23.012069	2.447052	141.527512	88.261365	2.936525	7.518440	8.130267	-23.081077	27.806784	110.056408	82.084440	-4.420734	11.410134
1.066667	-5.257381	1.432847	86.164169	0.257134	0.827292	0.752215	5.333651	-2.395161	-2.531466	12.493444	0.218052	35.528169	7.617428	0.000000	4.038387	2.688797	-8.130838	9.229555	0.161086	34.228629	3.448422	0.000000	0.260321	-0.288376	1.373815	0.483442	-0.383540	1.459678	0.427682	-0.701157	1.459678	0.297521	-0.701157	1.202088	0.241734	-0.588056	1.116225	0.148747	-0.446694	1.030361	1.859448	-3.262166	7.640746	0.000000	0.000000	11.139149	3.495520	-25.376781	13.523170	-22.898176	1.685802	142.935372	88.978600	1.977197	6.068314	8.405500	-23.459308	27.681149	110.914646	81.395459	-5.945504	11.616891
1.083333	-5.339017	1.598330	85.918296	0.258380	0.827810	0.752114	5.140927	-2.406714	-2.211475	12.405953	0.216525	35.466007	7.519318	0.000000	3.902921	2.685079	-8.578176	9.310961	0.162507	34.285215	3.807521	0.000000	0.248504	-0.324614	1.410183	0.461497	-0.431737	1.498320	0.408267	-0.789267	1.498320	0.284015	-0.789267	1.233910	0.230761	-0.661954	1.145774	0.141995	-0.502828	1.057637	1.775040	-3.672102	7.843016	0.000000	0.000000	10.927413	4.203634	-26.688369	13.998761	-22.610464	1.373513	144.116360	89.497637	0.696676	5.016958	8.436024	-23.802796	27.293807	111.785851	80.886745	-7.459512	11.890232
1.100000	-5.389913	1.743866	85.747557	0.259473	0.828407	0.752058	4.959551	-2.388312	-1.890925	12.303369	0.214734	35.359527	7.330364	0.000000	3.785827	2.664251	-8.863690	9.369668	0.163532	34.286291	4.067114	0.000000	0.236501	-0.354005	1.384432	0.439207	-0.470826	1.470959	0.388548	-0.860727	1.470959	0.270297	-0.860727	1.211378	0.219615	-0.721887	1.124851	0.135137	-0.548353	1.038324	1.689305	-4.004573	7.699798	0.000000	0.000000	10.775233	4.899108	-27.568756	14.713476	-22.196100	1.638396	145.013069	89.783487	-0.844710	4.361557	8.193527	-24.123603	26.651204	112.675425	80.479063	-8.840559	12.261002
1.116667	-5.403851	1.873332	85.681866	0.260364	0.829064	0.752071	4.779136	-2.335331	-1.606387	12.176795	0.212525	35.199700	7.045227	0.000000	3.686320	2.621928	-8.960709	9.406262	0.164170	34.229049	4.220176	0.000000	0.225158	-0.374231	1.289658	0.418141	-0.497727	1.370261	0.369913	-0.909906	1.370261	0.257333	-0.909906	1.128451	0.209082	-0.763132	1.047847	0.128655	-0.579684	0.967243	1.608283	-4.233378	7.172690	0.000000	0.000000	10.639454	5.521345	-27.918725	15.763514	-21.708527	2.553097	145.621465	89.817296	-2.605311	4.152507	7.685131	-24.454394	25.785846	113.570019	80.139490	-9.930465	12.718819
1.133333	-5.389153	1.987592	85.655571	0.261126	0.829752	0.752184	4.620446	-2.258304	-1.336429	12.052690	0.210359	35.004549	6.724047	0.000000	3.611369	2.548309	-9.169227	9.445796	0.164860	34.199568	4.586754	0.000000	0.214814	-0.386093	1.153593	0.398932	-0.513503	1.225693	0.352919	-0.938745	1.225693	0.245511	-0.938745	1.009394	0.199477	-0.787320	0.937295	0.122745	-0.598057	0.865195	1.534398	-4.367556	6.415940	0.000000	0.000000	10.508770	6.041790	-27.844850	17.094146	-21.219518	3.992248	146.027731	89.594636	-4.503453	4.355980	7.018696	-24.789669	24.759262	114.443840	80.038095	-10.414822	13.393159
1.150000	-5.334925	2.100649	85.702832	0.261673	0.830468	0.752397	4.458418	-2.145243	-1.081161	11.918547	0.208018	34.764582	6.315439	0.000000	3.545905	2.446439	-9.277330	9.481472	0.165483	34.166141	4.924223	0.000000	0.204165	-0.386239	0.969313	0.379155	-0.513697	1.029895	0.335423	-0.939100	1.029895	0.233340	-0.939100	0.848149	0.189588	-0.787618	0.787567	0.116660	-0.598284	0.726985	1.458330	-4.369208	5.391030	0.000000	0.000000	10.344348	6.403658	-27.219386	18.730792	-20.754407	5.904267	146.304689	89.285754	-6.500531	5.079240	6.205908	-25.145525	23.589100	115.274883	80.164104	-10.389612	14.132274
